<?xml version="1.0" encoding="UTF-8" standalone="no"?>
<!DOCTYPE svg PUBLIC "-//W3C//DTD SVG 1.1//EN"
 "http://www.w3.org/Graphics/SVG/1.1/DTD/svg11.dtd">
<!-- Generated by graphviz version 5.0.0 (20220707.1540)
 -->
<!-- Title: dependencies Pages: 1 -->
<svg width="753pt" height="174pt"
 viewBox="0.00 0.00 753.00 173.80" xmlns="http://www.w3.org/2000/svg" xmlns:xlink="http://www.w3.org/1999/xlink">
<g id="graph0" class="graph" transform="scale(1 1) rotate(0) translate(4 169.8)">
<title>dependencies</title>
<polygon fill="white" stroke="transparent" points="-4,4 -4,-169.8 749,-169.8 749,4 -4,4"/>
<text text-anchor="middle" x="372.5" y="-8.2" font-family="sans-serif" font-size="14.00">dependencies</text>
<g id="clust1" class="cluster">
<title>cluster_SetupModule</title>
<polygon fill="none" stroke="black" stroke-dasharray="1,5" points="8,-32.8 8,-157.8 737,-157.8 737,-32.8 8,-32.8"/>
</g>
<g id="clust3" class="cluster">
<title>cluster_SetupModule_imports</title>
<polygon fill="none" stroke="black" points="16,-40.8 16,-92.8 729,-92.8 729,-40.8 16,-40.8"/>
</g>
<!-- ConfigModule -->
<g id="node1" class="node">
<title>ConfigModule</title>
<polygon fill="#8dd3c7" stroke="black" points="721.44,-84.8 718.44,-88.8 697.44,-88.8 694.44,-84.8 622.56,-84.8 622.56,-48.8 721.44,-48.8 721.44,-84.8"/>
<text text-anchor="middle" x="672" y="-62.6" font-family="Times,serif" font-size="14.00">ConfigModule</text>
</g>
<!-- SetupModule -->
<g id="node7" class="node">
<title>SetupModule</title>
<polygon fill="#8dd3c7" stroke="black" points="411.94,-149.8 408.94,-153.8 387.94,-153.8 384.94,-149.8 320.06,-149.8 320.06,-113.8 411.94,-113.8 411.94,-149.8"/>
<text text-anchor="middle" x="366" y="-127.6" font-family="Times,serif" font-size="14.00">SetupModule</text>
</g>
<!-- ConfigModule&#45;&gt;SetupModule -->
<g id="edge1" class="edge">
<title>ConfigModule&#45;&gt;SetupModule</title>
<path fill="none" stroke="black" d="M672,-85.08C672,-106.12 672,-137.8 672,-137.8 672,-137.8 421.81,-137.8 421.81,-137.8"/>
<polygon fill="black" stroke="black" points="421.81,-134.3 411.81,-137.8 421.81,-141.3 421.81,-134.3"/>
</g>
<!-- DatabaseModule -->
<g id="node2" class="node">
<title>DatabaseModule</title>
<polygon fill="#8dd3c7" stroke="black" points="604.36,-84.8 601.36,-88.8 580.36,-88.8 577.36,-84.8 493.64,-84.8 493.64,-48.8 604.36,-48.8 604.36,-84.8"/>
<text text-anchor="middle" x="549" y="-62.6" font-family="Times,serif" font-size="14.00">DatabaseModule</text>
</g>
<!-- DatabaseModule&#45;&gt;SetupModule -->
<g id="edge2" class="edge">
<title>DatabaseModule&#45;&gt;SetupModule</title>
<path fill="none" stroke="black" d="M549,-84.82C549,-102.17 549,-125.8 549,-125.8 549,-125.8 422.18,-125.8 422.18,-125.8"/>
<polygon fill="black" stroke="black" points="422.18,-122.3 412.18,-125.8 422.18,-129.3 422.18,-122.3"/>
</g>
<!-- LoggerModule -->
<g id="node3" class="node">
<title>LoggerModule</title>
<polygon fill="#8dd3c7" stroke="black" points="475.98,-84.8 472.98,-88.8 451.98,-88.8 448.98,-84.8 376.02,-84.8 376.02,-48.8 475.98,-48.8 475.98,-84.8"/>
<text text-anchor="middle" x="426" y="-62.6" font-family="Times,serif" font-size="14.00">LoggerModule</text>
</g>
<!-- LoggerModule&#45;&gt;SetupModule -->
<g id="edge3" class="edge">
<title>LoggerModule&#45;&gt;SetupModule</title>
<path fill="none" stroke="black" d="M393.87,-84.91C393.87,-84.91 393.87,-103.79 393.87,-103.79"/>
<polygon fill="black" stroke="black" points="390.37,-103.79 393.87,-113.79 397.37,-103.79 390.37,-103.79"/>
</g>
<!-- RequestModule -->
<g id="node4" class="node">
<title>RequestModule</title>
<polygon fill="#8dd3c7" stroke="black" points="358.16,-84.8 355.16,-88.8 334.16,-88.8 331.16,-84.8 253.84,-84.8 253.84,-48.8 358.16,-48.8 358.16,-84.8"/>
<text text-anchor="middle" x="306" y="-62.6" font-family="Times,serif" font-size="14.00">RequestModule</text>
</g>
<!-- RequestModule&#45;&gt;SetupModule -->
<g id="edge4" class="edge">
<title>RequestModule&#45;&gt;SetupModule</title>
<path fill="none" stroke="black" d="M339.3,-84.91C339.3,-84.91 339.3,-103.79 339.3,-103.79"/>
<polygon fill="black" stroke="black" points="335.8,-103.79 339.3,-113.79 342.8,-103.79 335.8,-103.79"/>
</g>
<!-- SeederModule -->
<g id="node5" class="node">
<title>SeederModule</title>
<polygon fill="#8dd3c7" stroke="black" points="235.64,-84.8 232.64,-88.8 211.64,-88.8 208.64,-84.8 138.36,-84.8 138.36,-48.8 235.64,-48.8 235.64,-84.8"/>
<text text-anchor="middle" x="187" y="-62.6" font-family="Times,serif" font-size="14.00">SeederModule</text>
</g>
<!-- SeederModule&#45;&gt;SetupModule -->
<g id="edge5" class="edge">
<title>SeederModule&#45;&gt;SetupModule</title>
<path fill="none" stroke="black" d="M187,-84.82C187,-102.17 187,-125.8 187,-125.8 187,-125.8 309.9,-125.8 309.9,-125.8"/>
<polygon fill="black" stroke="black" points="309.9,-129.3 319.9,-125.8 309.9,-122.3 309.9,-129.3"/>
</g>
<!-- SentryModule -->
<g id="node6" class="node">
<title>SentryModule</title>
<polygon fill="#8dd3c7" stroke="black" points="120.1,-84.8 117.1,-88.8 96.1,-88.8 93.1,-84.8 23.9,-84.8 23.9,-48.8 120.1,-48.8 120.1,-84.8"/>
<text text-anchor="middle" x="72" y="-62.6" font-family="Times,serif" font-size="14.00">SentryModule</text>
</g>
<!-- SentryModule&#45;&gt;SetupModule -->
<g id="edge6" class="edge">
<title>SentryModule&#45;&gt;SetupModule</title>
<path fill="none" stroke="black" d="M72,-85.08C72,-106.12 72,-137.8 72,-137.8 72,-137.8 310.06,-137.8 310.06,-137.8"/>
<polygon fill="black" stroke="black" points="310.06,-141.3 320.06,-137.8 310.06,-134.3 310.06,-141.3"/>
</g>
</g>
</svg>
