<?xml version="1.0" encoding="UTF-8" standalone="no"?>
<!DOCTYPE svg PUBLIC "-//W3C//DTD SVG 1.1//EN"
 "http://www.w3.org/Graphics/SVG/1.1/DTD/svg11.dtd">
<!-- Generated by graphviz version 5.0.0 (20220707.1540)
 -->
<!-- Title: dependencies Pages: 1 -->
<svg width="320pt" height="247pt"
 viewBox="0.00 0.00 320.00 246.80" xmlns="http://www.w3.org/2000/svg" xmlns:xlink="http://www.w3.org/1999/xlink">
<g id="graph0" class="graph" transform="scale(1 1) rotate(0) translate(4 242.8)">
<title>dependencies</title>
<polygon fill="white" stroke="transparent" points="-4,4 -4,-242.8 316,-242.8 316,4 -4,4"/>
<text text-anchor="middle" x="156" y="-8.2" font-family="sans-serif" font-size="14.00">dependencies</text>
<g id="clust1" class="cluster">
<title>cluster_LoggerModule</title>
<polygon fill="none" stroke="black" stroke-dasharray="1,5" points="8,-32.8 8,-230.8 304,-230.8 304,-32.8 8,-32.8"/>
</g>
<g id="clust4" class="cluster">
<title>cluster_LoggerModule_exports</title>
<polygon fill="none" stroke="black" points="89,-170.8 89,-222.8 207,-222.8 207,-170.8 89,-170.8"/>
</g>
<g id="clust6" class="cluster">
<title>cluster_LoggerModule_providers</title>
<polygon fill="none" stroke="black" points="144,-40.8 144,-92.8 296,-92.8 296,-40.8 144,-40.8"/>
</g>
<g id="clust3" class="cluster">
<title>cluster_LoggerModule_imports</title>
<polygon fill="none" stroke="black" points="16,-40.8 16,-92.8 136,-92.8 136,-40.8 16,-40.8"/>
</g>
<!-- RequestModule -->
<g id="node1" class="node">
<title>RequestModule</title>
<polygon fill="#8dd3c7" stroke="black" points="128.16,-84.8 125.16,-88.8 104.16,-88.8 101.16,-84.8 23.84,-84.8 23.84,-48.8 128.16,-48.8 128.16,-84.8"/>
<text text-anchor="middle" x="76" y="-62.6" font-family="Times,serif" font-size="14.00">RequestModule</text>
</g>
<!-- LoggerModule -->
<g id="node2" class="node">
<title>LoggerModule</title>
<polygon fill="#8dd3c7" stroke="black" points="197.98,-149.8 194.98,-153.8 173.98,-153.8 170.98,-149.8 98.02,-149.8 98.02,-113.8 197.98,-113.8 197.98,-149.8"/>
<text text-anchor="middle" x="148" y="-127.6" font-family="Times,serif" font-size="14.00">LoggerModule</text>
</g>
<!-- RequestModule&#45;&gt;LoggerModule -->
<g id="edge1" class="edge">
<title>RequestModule&#45;&gt;LoggerModule</title>
<path fill="none" stroke="black" d="M113.17,-84.91C113.17,-84.91 113.17,-103.79 113.17,-103.79"/>
<polygon fill="black" stroke="black" points="109.67,-103.79 113.17,-113.79 116.67,-103.79 109.67,-103.79"/>
</g>
<!-- LoggerService  -->
<g id="node3" class="node">
<title>LoggerService </title>
<polygon fill="#fb8072" stroke="black" points="198.91,-214.8 97.09,-214.8 97.09,-178.8 198.91,-178.8 198.91,-214.8"/>
<text text-anchor="middle" x="148" y="-192.6" font-family="Times,serif" font-size="14.00">LoggerService </text>
</g>
<!-- LoggerModule&#45;&gt;LoggerService  -->
<g id="edge2" class="edge">
<title>LoggerModule&#45;&gt;LoggerService </title>
<path fill="none" stroke="black" stroke-dasharray="5,2" d="M148,-149.91C148,-149.91 148,-168.79 148,-168.79"/>
<polygon fill="black" stroke="black" points="144.5,-168.79 148,-178.79 151.5,-168.79 144.5,-168.79"/>
</g>
<!-- LoggerService -->
<g id="node4" class="node">
<title>LoggerService</title>
<ellipse fill="#fdb462" stroke="black" cx="220" cy="-66.8" rx="67.76" ry="18"/>
<text text-anchor="middle" x="220" y="-62.6" font-family="Times,serif" font-size="14.00">LoggerService</text>
</g>
<!-- LoggerService&#45;&gt;LoggerModule -->
<g id="edge3" class="edge">
<title>LoggerService&#45;&gt;LoggerModule</title>
<path fill="none" stroke="black" d="M175.06,-80.58C175.06,-80.58 175.06,-103.35 175.06,-103.35"/>
<polygon fill="black" stroke="black" points="171.56,-103.35 175.06,-113.35 178.56,-103.35 171.56,-103.35"/>
</g>
</g>
</svg>
