<?xml version="1.0" encoding="UTF-8" standalone="no"?>
<!DOCTYPE svg PUBLIC "-//W3C//DTD SVG 1.1//EN"
 "http://www.w3.org/Graphics/SVG/1.1/DTD/svg11.dtd">
<!-- Generated by graphviz version 5.0.0 (20220707.1540)
 -->
<!-- Title: dependencies Pages: 1 -->
<svg width="420pt" height="247pt"
 viewBox="0.00 0.00 420.00 246.80" xmlns="http://www.w3.org/2000/svg" xmlns:xlink="http://www.w3.org/1999/xlink">
<g id="graph0" class="graph" transform="scale(1 1) rotate(0) translate(4 242.8)">
<title>dependencies</title>
<polygon fill="white" stroke="transparent" points="-4,4 -4,-242.8 416,-242.8 416,4 -4,4"/>
<text text-anchor="middle" x="206" y="-8.2" font-family="sans-serif" font-size="14.00">dependencies</text>
<g id="clust1" class="cluster">
<title>cluster_SeederModule</title>
<polygon fill="none" stroke="black" stroke-dasharray="1,5" points="8,-32.8 8,-230.8 404,-230.8 404,-32.8 8,-32.8"/>
</g>
<g id="clust4" class="cluster">
<title>cluster_SeederModule_exports</title>
<polygon fill="none" stroke="black" points="168,-170.8 168,-222.8 284,-222.8 284,-170.8 168,-170.8"/>
</g>
<g id="clust6" class="cluster">
<title>cluster_SeederModule_providers</title>
<polygon fill="none" stroke="black" points="16,-40.8 16,-92.8 396,-92.8 396,-40.8 16,-40.8"/>
</g>
<!-- SeederService  -->
<g id="node1" class="node">
<title>SeederService </title>
<polygon fill="#fb8072" stroke="black" points="275.57,-214.8 176.43,-214.8 176.43,-178.8 275.57,-178.8 275.57,-214.8"/>
<text text-anchor="middle" x="226" y="-192.6" font-family="Times,serif" font-size="14.00">SeederService </text>
</g>
<!-- SeederModule -->
<g id="node2" class="node">
<title>SeederModule</title>
<polygon fill="#8dd3c7" stroke="black" points="274.64,-149.8 271.64,-153.8 250.64,-153.8 247.64,-149.8 177.36,-149.8 177.36,-113.8 274.64,-113.8 274.64,-149.8"/>
<text text-anchor="middle" x="226" y="-127.6" font-family="Times,serif" font-size="14.00">SeederModule</text>
</g>
<!-- SeederModule&#45;&gt;SeederService  -->
<g id="edge1" class="edge">
<title>SeederModule&#45;&gt;SeederService </title>
<path fill="none" stroke="black" stroke-dasharray="5,2" d="M226,-149.91C226,-149.91 226,-168.79 226,-168.79"/>
<polygon fill="black" stroke="black" points="222.5,-168.79 226,-178.79 229.5,-168.79 222.5,-168.79"/>
</g>
<!-- SeederService -->
<g id="node3" class="node">
<title>SeederService</title>
<ellipse fill="#fdb462" stroke="black" cx="322" cy="-66.8" rx="66.03" ry="18"/>
<text text-anchor="middle" x="322" y="-62.6" font-family="Times,serif" font-size="14.00">SeederService</text>
</g>
<!-- SeederService&#45;&gt;SeederModule -->
<g id="edge2" class="edge">
<title>SeederService&#45;&gt;SeederModule</title>
<path fill="none" stroke="black" d="M265.28,-76.11C265.28,-76.11 265.28,-103.65 265.28,-103.65"/>
<polygon fill="black" stroke="black" points="261.78,-103.65 265.28,-113.65 268.78,-103.65 261.78,-103.65"/>
</g>
<!-- TestSeedAlterSomeData -->
<g id="node4" class="node">
<title>TestSeedAlterSomeData</title>
<ellipse fill="#fdb462" stroke="black" cx="131" cy="-66.8" rx="106.51" ry="18"/>
<text text-anchor="middle" x="131" y="-62.6" font-family="Times,serif" font-size="14.00">TestSeedAlterSomeData</text>
</g>
<!-- TestSeedAlterSomeData&#45;&gt;SeederModule -->
<g id="edge3" class="edge">
<title>TestSeedAlterSomeData&#45;&gt;SeederModule</title>
<path fill="none" stroke="black" d="M207.34,-79.64C207.34,-79.64 207.34,-103.32 207.34,-103.32"/>
<polygon fill="black" stroke="black" points="203.84,-103.32 207.34,-113.32 210.84,-103.32 203.84,-103.32"/>
</g>
</g>
</svg>
