<?xml version="1.0" encoding="UTF-8" standalone="no"?>
<!DOCTYPE svg PUBLIC "-//W3C//DTD SVG 1.1//EN"
 "http://www.w3.org/Graphics/SVG/1.1/DTD/svg11.dtd">
<!-- Generated by graphviz version 5.0.0 (20220707.1540)
 -->
<!-- Title: dependencies Pages: 1 -->
<svg width="664pt" height="174pt"
 viewBox="0.00 0.00 664.00 173.80" xmlns="http://www.w3.org/2000/svg" xmlns:xlink="http://www.w3.org/1999/xlink">
<g id="graph0" class="graph" transform="scale(1 1) rotate(0) translate(4 169.8)">
<title>dependencies</title>
<polygon fill="white" stroke="transparent" points="-4,4 -4,-169.8 660,-169.8 660,4 -4,4"/>
<text text-anchor="middle" x="328" y="-8.2" font-family="sans-serif" font-size="14.00">dependencies</text>
<g id="clust1" class="cluster">
<title>cluster_AppModule</title>
<polygon fill="none" stroke="black" stroke-dasharray="1,5" points="8,-32.8 8,-157.8 648,-157.8 648,-32.8 8,-32.8"/>
</g>
<g id="clust3" class="cluster">
<title>cluster_AppModule_imports</title>
<polygon fill="none" stroke="black" points="16,-40.8 16,-92.8 640,-92.8 640,-40.8 16,-40.8"/>
</g>
<!-- ActivityModule -->
<g id="node1" class="node">
<title>ActivityModule</title>
<polygon fill="#8dd3c7" stroke="black" points="631.94,-84.8 628.94,-88.8 607.94,-88.8 604.94,-84.8 526.06,-84.8 526.06,-48.8 631.94,-48.8 631.94,-84.8"/>
<text text-anchor="middle" x="579" y="-62.6" font-family="Times,serif" font-size="14.00">ActivityModule</text>
</g>
<!-- AppModule -->
<g id="node6" class="node">
<title>AppModule</title>
<polygon fill="#8dd3c7" stroke="black" points="364.66,-149.8 361.66,-153.8 340.66,-153.8 337.66,-149.8 281.34,-149.8 281.34,-113.8 364.66,-113.8 364.66,-149.8"/>
<text text-anchor="middle" x="323" y="-127.6" font-family="Times,serif" font-size="14.00">AppModule</text>
</g>
<!-- ActivityModule&#45;&gt;AppModule -->
<g id="edge1" class="edge">
<title>ActivityModule&#45;&gt;AppModule</title>
<path fill="none" stroke="black" d="M579,-85.08C579,-106.12 579,-137.8 579,-137.8 579,-137.8 374.7,-137.8 374.7,-137.8"/>
<polygon fill="black" stroke="black" points="374.7,-134.3 364.7,-137.8 374.7,-141.3 374.7,-134.3"/>
</g>
<!-- DictionaryModule -->
<g id="node2" class="node">
<title>DictionaryModule</title>
<polygon fill="#8dd3c7" stroke="black" points="508.92,-84.8 505.92,-88.8 484.92,-88.8 481.92,-84.8 389.08,-84.8 389.08,-48.8 508.92,-48.8 508.92,-84.8"/>
<text text-anchor="middle" x="449" y="-62.6" font-family="Times,serif" font-size="14.00">DictionaryModule</text>
</g>
<!-- DictionaryModule&#45;&gt;AppModule -->
<g id="edge2" class="edge">
<title>DictionaryModule&#45;&gt;AppModule</title>
<path fill="none" stroke="black" d="M449,-84.82C449,-102.17 449,-125.8 449,-125.8 449,-125.8 374.96,-125.8 374.96,-125.8"/>
<polygon fill="black" stroke="black" points="374.96,-122.3 364.96,-125.8 374.96,-129.3 374.96,-122.3"/>
</g>
<!-- HealthModule -->
<g id="node3" class="node">
<title>HealthModule</title>
<polygon fill="#8dd3c7" stroke="black" points="371.37,-84.8 368.37,-88.8 347.37,-88.8 344.37,-84.8 274.63,-84.8 274.63,-48.8 371.37,-48.8 371.37,-84.8"/>
<text text-anchor="middle" x="323" y="-62.6" font-family="Times,serif" font-size="14.00">HealthModule</text>
</g>
<!-- HealthModule&#45;&gt;AppModule -->
<g id="edge3" class="edge">
<title>HealthModule&#45;&gt;AppModule</title>
<path fill="none" stroke="black" d="M323,-84.91C323,-84.91 323,-103.79 323,-103.79"/>
<polygon fill="black" stroke="black" points="319.5,-103.79 323,-113.79 326.5,-103.79 319.5,-103.79"/>
</g>
<!-- SetupModule -->
<g id="node4" class="node">
<title>SetupModule</title>
<polygon fill="#8dd3c7" stroke="black" points="256.94,-84.8 253.94,-88.8 232.94,-88.8 229.94,-84.8 165.06,-84.8 165.06,-48.8 256.94,-48.8 256.94,-84.8"/>
<text text-anchor="middle" x="211" y="-62.6" font-family="Times,serif" font-size="14.00">SetupModule</text>
</g>
<!-- SetupModule&#45;&gt;AppModule -->
<g id="edge4" class="edge">
<title>SetupModule&#45;&gt;AppModule</title>
<path fill="none" stroke="black" d="M211,-84.82C211,-102.17 211,-125.8 211,-125.8 211,-125.8 271.3,-125.8 271.3,-125.8"/>
<polygon fill="black" stroke="black" points="271.3,-129.3 281.3,-125.8 271.3,-122.3 271.3,-129.3"/>
</g>
<!-- TranslationModule -->
<g id="node5" class="node">
<title>TranslationModule</title>
<polygon fill="#8dd3c7" stroke="black" points="147.81,-84.8 144.81,-88.8 123.81,-88.8 120.81,-84.8 24.19,-84.8 24.19,-48.8 147.81,-48.8 147.81,-84.8"/>
<text text-anchor="middle" x="86" y="-62.6" font-family="Times,serif" font-size="14.00">TranslationModule</text>
</g>
<!-- TranslationModule&#45;&gt;AppModule -->
<g id="edge5" class="edge">
<title>TranslationModule&#45;&gt;AppModule</title>
<path fill="none" stroke="black" d="M86,-85.08C86,-106.12 86,-137.8 86,-137.8 86,-137.8 271.17,-137.8 271.17,-137.8"/>
<polygon fill="black" stroke="black" points="271.17,-141.3 281.17,-137.8 271.17,-134.3 271.17,-141.3"/>
</g>
</g>
</svg>
