<?xml version="1.0" encoding="UTF-8" standalone="no"?>
<!DOCTYPE svg PUBLIC "-//W3C//DTD SVG 1.1//EN"
 "http://www.w3.org/Graphics/SVG/1.1/DTD/svg11.dtd">
<!-- Generated by graphviz version 5.0.0 (20220707.1540)
 -->
<!-- Title: dependencies Pages: 1 -->
<svg width="348pt" height="174pt"
 viewBox="0.00 0.00 348.00 173.80" xmlns="http://www.w3.org/2000/svg" xmlns:xlink="http://www.w3.org/1999/xlink">
<g id="graph0" class="graph" transform="scale(1 1) rotate(0) translate(4 169.8)">
<title>dependencies</title>
<polygon fill="white" stroke="transparent" points="-4,4 -4,-169.8 344,-169.8 344,4 -4,4"/>
<text text-anchor="middle" x="170" y="-8.2" font-family="sans-serif" font-size="14.00">dependencies</text>
<g id="clust1" class="cluster">
<title>cluster_DictionaryModule</title>
<polygon fill="none" stroke="black" stroke-dasharray="1,5" points="8,-32.8 8,-157.8 332,-157.8 332,-32.8 8,-32.8"/>
</g>
<g id="clust6" class="cluster">
<title>cluster_DictionaryModule_providers</title>
<polygon fill="none" stroke="black" points="146,-40.8 146,-92.8 324,-92.8 324,-40.8 146,-40.8"/>
</g>
<g id="clust3" class="cluster">
<title>cluster_DictionaryModule_imports</title>
<polygon fill="none" stroke="black" points="16,-40.8 16,-92.8 138,-92.8 138,-40.8 16,-40.8"/>
</g>
<!-- ActivityModule -->
<g id="node1" class="node">
<title>ActivityModule</title>
<polygon fill="#8dd3c7" stroke="black" points="129.94,-84.8 126.94,-88.8 105.94,-88.8 102.94,-84.8 24.06,-84.8 24.06,-48.8 129.94,-48.8 129.94,-84.8"/>
<text text-anchor="middle" x="77" y="-62.6" font-family="Times,serif" font-size="14.00">ActivityModule</text>
</g>
<!-- DictionaryModule -->
<g id="node2" class="node">
<title>DictionaryModule</title>
<polygon fill="#8dd3c7" stroke="black" points="215.92,-149.8 212.92,-153.8 191.92,-153.8 188.92,-149.8 96.08,-149.8 96.08,-113.8 215.92,-113.8 215.92,-149.8"/>
<text text-anchor="middle" x="156" y="-127.6" font-family="Times,serif" font-size="14.00">DictionaryModule</text>
</g>
<!-- ActivityModule&#45;&gt;DictionaryModule -->
<g id="edge1" class="edge">
<title>ActivityModule&#45;&gt;DictionaryModule</title>
<path fill="none" stroke="black" d="M113,-84.91C113,-84.91 113,-103.79 113,-103.79"/>
<polygon fill="black" stroke="black" points="109.5,-103.79 113,-113.79 116.5,-103.79 109.5,-103.79"/>
</g>
<!-- DictionaryService -->
<g id="node3" class="node">
<title>DictionaryService</title>
<ellipse fill="#fdb462" stroke="black" cx="235" cy="-66.8" rx="81.08" ry="18"/>
<text text-anchor="middle" x="235" y="-62.6" font-family="Times,serif" font-size="14.00">DictionaryService</text>
</g>
<!-- DictionaryService&#45;&gt;DictionaryModule -->
<g id="edge2" class="edge">
<title>DictionaryService&#45;&gt;DictionaryModule</title>
<path fill="none" stroke="black" d="M184.71,-81.23C184.71,-81.23 184.71,-103.69 184.71,-103.69"/>
<polygon fill="black" stroke="black" points="181.21,-103.69 184.71,-113.69 188.21,-103.69 181.21,-103.69"/>
</g>
</g>
</svg>
